<svg xmlns="http://www.w3.org/2000/svg" viewBox="0 0 113.39 17.17"><defs><style>.cls-1{fill:#038442;}.cls-2{fill:#131415;}</style></defs><g id="Layer_2" data-name="Layer 2"><g id="Layer_1-2" data-name="Layer 1"><rect class="cls-1" x="84.89" y="10.96" width="5.39" height="1.35"/><rect class="cls-1" x="80.78" y="5.57" width="5.39" height="1.35"/><rect class="cls-1" x="84.89" y="0.19" width="5.39" height="1.35"/><rect class="cls-1" x="76.66" y="10.96" width="5.39" height="1.35"/><rect class="cls-1" x="84.07" y="8.27" width="4.19" height="1.35"/><rect class="cls-1" x="78.68" y="8.27" width="4.19" height="1.35"/><rect class="cls-1" x="80.78" y="5.57" width="5.39" height="1.35"/><rect class="cls-1" x="84.07" y="2.88" width="4.19" height="1.35"/><rect class="cls-1" x="78.68" y="2.88" width="4.19" height="1.35"/><rect class="cls-1" x="76.66" y="0.19" width="5.39" height="1.35"/><path class="cls-2" d="M0,6.33A6.05,6.05,0,0,1,6.05,0a5.52,5.52,0,0,1,4.69,2.47V.28h2v12.1h-2V10.2a5.52,5.52,0,0,1-4.69,2.47A6.05,6.05,0,0,1,0,6.33m10.74,0A4.24,4.24,0,0,0,6.43,2,4.24,4.24,0,0,0,2.09,6.33,4.25,4.25,0,0,0,6.43,10.7a4.24,4.24,0,0,0,4.31-4.37"/><path class="cls-2" d="M14.51,6.05a5.92,5.92,0,0,1,6-6,5.57,5.57,0,0,1,4.72,2.4V.28h2v10.8a5.77,5.77,0,0,1-6.16,6.09c-3.06,0-5.41-1.61-5.88-4.15h2.11c.4,1.38,1.92,2.28,3.79,2.28a3.86,3.86,0,0,0,4.1-4.15V9.72a5.57,5.57,0,0,1-4.72,2.4,5.94,5.94,0,0,1-6-6.07m10.76,0A4.12,4.12,0,0,0,21,2a4.13,4.13,0,0,0-4.34,4.08A4.12,4.12,0,0,0,21,10.13a4.11,4.11,0,0,0,4.31-4.08"/><path class="cls-2" d="M29.71.28h2V2.59A4.88,4.88,0,0,1,36.09.1h.38V2.21h-.38c-2.7,0-4.34,1.61-4.34,4.1v6.07h-2Z"/><path class="cls-2" d="M36.43,6.33a6.44,6.44,0,0,1,12.87,0,6.44,6.44,0,0,1-12.87,0m10.76,0a4.33,4.33,0,1,0-8.65,0,4.33,4.33,0,1,0,8.65,0"/><path class="cls-1" d="M51,.28h2V2.11A5.12,5.12,0,0,1,57.4,0a4.63,4.63,0,0,1,4.91,4.91v7.47h-2V5.55A3.34,3.34,0,0,0,56.73,2,3.46,3.46,0,0,0,53,5.6v6.78H51Z"/><path class="cls-1" d="M63.81,6.33a6.43,6.43,0,0,1,12.85,0c0,.29,0,.59,0,.86H66a4.24,4.24,0,0,0,4.34,3.6,4.39,4.39,0,0,0,3.84-2h2.28a6.48,6.48,0,0,1-6.14,3.89,6.27,6.27,0,0,1-6.5-6.34m2.2-1h8.5a4.33,4.33,0,0,0-8.5,0"/><path class="cls-1" d="M91.52,7.9V.28h2v7a3.17,3.17,0,0,0,3.32,3.4,3.31,3.31,0,0,0,3.54-3.44v-7h2v12.1h-2V10.63a4.9,4.9,0,0,1-4.18,2A4.49,4.49,0,0,1,91.52,7.9"/><path class="cls-1" d="M104.16,8.94h2.09c0,1.14,1,1.88,2.61,1.88s2.44-.69,2.44-1.67c0-2.6-7-1.23-7-5.5,0-2.2,1.76-3.65,4.39-3.65s4.46,1.42,4.46,3.58h-2.09c0-1-1-1.73-2.39-1.73s-2.28.64-2.28,1.57c0,2.53,7,1.18,7,5.52,0,2.23-1.8,3.73-4.55,3.73s-4.68-1.5-4.68-3.73"/></g></g></svg>